# xmcd
#
# Track frame offsets: 
#        150
#        15517
#        33960
#        52950
#        68945
#        95010
#        112652
#        124965
#        140150
#        157770
#        176885
#        195577
#        211885
#        231645
#        249375
#        267427
#        285470
#        304970
#        323332
#
# Disc length: 4572 seconds
#
# Revision: 3
# Processed by: cddbd v1.5.1PL2 Copyright (c) Steve Scherf et al.
# Submitted via: ExactAudioCopy v0.95b3
#
DISCID=0c11da13
DTITLE=Various Artist - Motown 40 Forever [CD02 Of 02)
DYEAR=1998
DGENRE=R&B
TTITLE0=Rick James - Superfreak
TTITLE1=Dazz Band - Let It Wip
TTITLE2=Johnny Gill - Rub You The Right Way
TTITLE3=Jermaine Jackson - Let's Get Serious
TTITLE4=Teena Marie and Rick James - Fire and Desire
TTITLE5=Rockwell - Somebody's Watching Me
TTITLE6=The Temptations - My Girl
TTITLE7=Edwin Starr - War
TTITLE8=Diana Ross - I'm Comming Out
TTITLE9=Lionel Richie - All Night Long (All Night)
TTITLE10=DeBarge - All This Love
TTITLE11=The Commodores - Three Times A Lady
TTITLE12=Shanice - I Love Your Smile
TTITLE13=Boyz II Men - I'll Make Love To You
TTITLE14=Stevie Wonder - Superstition
TTITLE15=Marvin Gaye - Let's Get It On
TTITLE16=Today - Him Or Me
TTITLE17=Dennis Edwards featuring Siedah Garrent - Don't Look Any Furt
TTITLE17=her
TTITLE18=Jackson 5 featuring Black Rob - I Want You Back '98
EXTD=
EXTT0=
EXTT1=
EXTT2=
EXTT3=
EXTT4=
EXTT5=
EXTT6=
EXTT7=
EXTT8=
EXTT9=
EXTT10=
EXTT11=
EXTT12=
EXTT13=
EXTT14=
EXTT15=
EXTT16=
EXTT17=
EXTT18=
PLAYORDER=
